<?xml version="1.0" encoding="UTF-8" standalone="no"?>
<svg
   xmlns:dc="http://purl.org/dc/elements/1.1/"
   xmlns:cc="http://creativecommons.org/ns#"
   xmlns:rdf="http://www.w3.org/1999/02/22-rdf-syntax-ns#"
   xmlns:svg="http://www.w3.org/2000/svg"
   xmlns="http://www.w3.org/2000/svg"
   xmlns:sodipodi="http://sodipodi.sourceforge.net/DTD/sodipodi-0.dtd"
   xmlns:inkscape="http://www.inkscape.org/namespaces/inkscape"
   version="1.1"
   x="0px"
   y="0px"
   viewBox="0 0 512 512"
   enable-background="new 0 0 512 512"
   xml:space="preserve"
   id="svg8"
   sodipodi:docname="noun_389454_cc.svg"
   width="512"
   height="512"
   inkscape:version="0.92.2 (5c3e80d, 2017-08-06)"><metadata
     id="metadata14"><rdf:RDF><cc:Work
         rdf:about=""><dc:format>image/svg+xml</dc:format><dc:type
           rdf:resource="http://purl.org/dc/dcmitype/StillImage" /></cc:Work></rdf:RDF></metadata><defs
     id="defs12" /><sodipodi:namedview
     pagecolor="#ffffff"
     bordercolor="#666666"
     borderopacity="1"
     objecttolerance="10"
     gridtolerance="10"
     guidetolerance="10"
     inkscape:pageopacity="0"
     inkscape:pageshadow="2"
     inkscape:window-width="1600"
     inkscape:window-height="873"
     id="namedview10"
     showgrid="false"
     inkscape:zoom="0.7375"
     inkscape:cx="260.73872"
     inkscape:cy="299.45811"
     inkscape:window-x="0"
     inkscape:window-y="27"
     inkscape:window-maximized="1"
     inkscape:current-layer="svg8" /><path
     d="M 506,105.99999 V 55.999998 h -50.00001 v -50 h -50 v 50 H 280.93333 v -50 h -50 v 50 H 105.86666 v -50 H 56.000001 v 50 H 5.9999997 V 105.99999 H 56.000001 V 231.06666 H 5.9999997 v 50 H 56.000001 V 406.13333 H 5.9999997 V 456 H 56.000001 v 50 h 49.999989 v -50 h 125.06667 v 50 h 50 v -50 h 125.06667 v 50 h 49.86666 V 456 H 506 V 406 H 455.99999 V 280.93333 H 506 v -50 H 455.99999 V 105.86666 H 506 Z M 231.06666,406 H 105.99999 V 280.93333 h 125.06667 z m 0,-174.93334 H 105.99999 V 105.99999 H 231.06666 Z M 405.99999,406 H 280.93333 V 280.93333 h 125.06666 z m 0,-174.93334 H 280.93333 V 105.99999 h 125.06666 z"
     id="path2"
     inkscape:connector-curvature="0"
     style="stroke-width:1.33333337;fill:#ffffff;fill-opacity:1" /></svg>