<?xml version="1.0" encoding="UTF-8" standalone="no"?>
<svg
   xmlns:dc="http://purl.org/dc/elements/1.1/"
   xmlns:cc="http://creativecommons.org/ns#"
   xmlns:rdf="http://www.w3.org/1999/02/22-rdf-syntax-ns#"
   xmlns:svg="http://www.w3.org/2000/svg"
   xmlns="http://www.w3.org/2000/svg"
   xmlns:sodipodi="http://sodipodi.sourceforge.net/DTD/sodipodi-0.dtd"
   xmlns:inkscape="http://www.inkscape.org/namespaces/inkscape"
   version="1.1"
   x="0px"
   y="0px"
   viewBox="0 0 512 512"
   xml:space="preserve"
   id="svg8"
   sodipodi:docname="line-chart.svg"
   width="512"
   height="512"
   inkscape:version="0.92.2 (5c3e80d, 2017-08-06)"><metadata
     id="metadata14"><rdf:RDF><cc:Work
         rdf:about=""><dc:format>image/svg+xml</dc:format><dc:type
           rdf:resource="http://purl.org/dc/dcmitype/StillImage" /></cc:Work></rdf:RDF></metadata><defs
     id="defs12" /><sodipodi:namedview
     pagecolor="#ffffff"
     bordercolor="#666666"
     borderopacity="1"
     objecttolerance="10"
     gridtolerance="10"
     guidetolerance="10"
     inkscape:pageopacity="0"
     inkscape:pageshadow="2"
     inkscape:window-width="1600"
     inkscape:window-height="873"
     id="namedview10"
     showgrid="false"
     inkscape:zoom="0.944"
     inkscape:cx="146.24771"
     inkscape:cy="205.9924"
     inkscape:window-x="0"
     inkscape:window-y="27"
     inkscape:window-maximized="1"
     inkscape:current-layer="svg8" /><path
     d="m 358.86939,50.495434 c -6.8308,0.62094 -13.04053,5.588686 -15.52431,11.798359 L 247.71619,312.54357 162.64354,254.7936 c -4.34676,-3.10486 -9.3146,-3.72567 -14.28216,-2.48378 -4.96784,1.24189 -9.31459,4.34675 -11.79837,8.69351 L 31.61942,433.63244 c -5.588702,8.69352 -2.483869,20.49188 6.20967,25.45945 3.104842,1.86298 6.209672,2.48405 9.314515,2.48405 6.209672,0 12.419346,-3.10486 16.145145,-8.69351 l 94.38694,-155.8629 88.17754,59.61295 c 4.96784,3.10486 10.55647,4.34675 16.14513,2.48378 5.58863,-1.86298 9.93539,-5.58865 11.79837,-11.17757 l 91.28211,-237.83039 84.45159,132.88692 c 5.58892,8.69352 16.7662,11.17757 25.45971,5.58892 8.6935,-5.58892 11.17754,-16.76619 5.58865,-25.45971 L 376.25641,59.18896 c -3.72594,-6.209673 -10.55648,-9.314504 -17.38702,-8.693526 z"
     id="path2"
     inkscape:connector-curvature="0"
     style="fill:#ffffff;fill-opacity:1;stroke:#ffffff;stroke-width:45.47515488;stroke-miterlimit:4;stroke-dasharray:none;stroke-opacity:1" /></svg>