<?xml version="1.0" encoding="iso-8859-1"?>
<!-- Generator: Adobe Illustrator 18.1.1, SVG Export Plug-In . SVG Version: 6.00 Build 0)  -->
<svg xmlns="http://www.w3.org/2000/svg" xmlns:xlink="http://www.w3.org/1999/xlink" version="1.1" id="Capa_1" x="0px" y="0px" viewBox="0 0 70 70" style="enable-background:new 0 0 70 70;" xml:space="preserve" width="512px" height="512px">
<g>
	<g>
		<g>
			<path d="M52.5,0c-4.972,0-9,1.529-9,6.5v57c0,4.971,4.028,6.5,9,6.5c4.971,0,9-1.529,9-6.5v-57     C61.5,1.529,57.471,0,52.5,0z" fill="#FFFFFF"/>
			<path d="M17.5,0c-4.972,0-9,1.529-9,6.5v57c0,4.971,4.028,6.5,9,6.5c4.971,0,9-1.529,9-6.5v-57     C26.5,1.529,22.471,0,17.5,0z" fill="#FFFFFF"/>
		</g>
	</g>
</g>
<g>
</g>
<g>
</g>
<g>
</g>
<g>
</g>
<g>
</g>
<g>
</g>
<g>
</g>
<g>
</g>
<g>
</g>
<g>
</g>
<g>
</g>
<g>
</g>
<g>
</g>
<g>
</g>
<g>
</g>
</svg>
