<?xml version="1.0" encoding="UTF-8" standalone="no"?>
<svg
   xmlns:dc="http://purl.org/dc/elements/1.1/"
   xmlns:cc="http://creativecommons.org/ns#"
   xmlns:rdf="http://www.w3.org/1999/02/22-rdf-syntax-ns#"
   xmlns:svg="http://www.w3.org/2000/svg"
   xmlns="http://www.w3.org/2000/svg"
   xmlns:sodipodi="http://sodipodi.sourceforge.net/DTD/sodipodi-0.dtd"
   xmlns:inkscape="http://www.inkscape.org/namespaces/inkscape"
   version="1.1"
   x="0px"
   y="0px"
   viewBox="0 0 98.876419 98.876419"
   enable-background="new 0 0 100 100"
   xml:space="preserve"
   id="svg8"
   sodipodi:docname="evoplex.svg"
   inkscape:version="0.92pre2 r"
   width="98.876419"
   height="98.876419"
   inkscape:export-filename="/mnt/Data/Dropbox/evoplex/noun_137575_cc.svg_256.png"
   inkscape:export-xdpi="305.37225"
   inkscape:export-ydpi="305.37225"><metadata
     id="metadata14"><rdf:RDF><cc:Work
         rdf:about=""><dc:format>image/svg+xml</dc:format><dc:type
           rdf:resource="http://purl.org/dc/dcmitype/StillImage" /></cc:Work></rdf:RDF></metadata><defs
     id="defs12" /><sodipodi:namedview
     pagecolor="#ffffff"
     bordercolor="#666666"
     borderopacity="1"
     objecttolerance="10"
     gridtolerance="10"
     guidetolerance="10"
     inkscape:pageopacity="0"
     inkscape:pageshadow="2"
     inkscape:window-width="1600"
     inkscape:window-height="873"
     id="namedview10"
     showgrid="false"
     inkscape:zoom="3.776"
     inkscape:cx="73.646631"
     inkscape:cy="63.650076"
     inkscape:window-x="0"
     inkscape:window-y="27"
     inkscape:window-maximized="1"
     inkscape:current-layer="svg8" /><rect
     style="display:none;opacity:1;fill:#f0f0f0;fill-opacity:1;stroke:#000000;stroke-width:1.5;stroke-linecap:round;stroke-linejoin:round;stroke-miterlimit:4;stroke-dasharray:none;stroke-opacity:1"
     id="rect5200"
     width="76.306923"
     height="75.392929"
     x="15.284285"
     y="8.1162682"
     ry="9.9313374"
     rx="0" /><path
     d="m 66.481458,43.431204 -4.575987,-2.477142 -18.722933,0.13167 -0.0915,-20.05061 -2.094548,-4.541946 0.198373,39.655086 -21.688595,19.255664 3.19301,3.070311 19.207425,-19.261733 41.912322,-0.412083 -4.51947,-2.364463 -36.046634,0.269355 -0.05823,-13.119611 z"
     id="polygon2"
     inkscape:connector-curvature="0"
     sodipodi:nodetypes="cccccccccccccc"
     style="fill:#a1c2fa;fill-opacity:1;stroke-width:0.88575321" /><g
     inkscape:groupmode="layer"
     id="layer1"
     inkscape:label="Layer 1"
     transform="translate(15.745442,0.73679789)"
     style="display:inline"><path
       style="fill:#a1c2fa;fill-opacity:1;fill-rule:evenodd;stroke:none;stroke-width:1.03504002px;stroke-linecap:butt;stroke-linejoin:miter;stroke-opacity:1"
       d="m 26.231422,10.019627 a 5.4822038,5.4822038 0 0 0 -5.454983,5.509834 5.4822038,5.4822038 0 0 0 5.509833,5.454984 5.4822038,5.4822038 0 0 0 5.454985,-5.509835 5.4822038,5.4822038 0 0 0 -5.509835,-5.454983 z"
       id="path3674"
       inkscape:connector-curvature="0" /><path
       style="fill:#4285f4;fill-opacity:1;fill-rule:evenodd;stroke:none;stroke-width:1.0350399px;stroke-linecap:butt;stroke-linejoin:miter;stroke-opacity:1"
       d="m 50.520422,35.904034 a 5.4822033,5.4822033 0 0 0 -5.454983,5.509835 5.4822033,5.4822033 0 0 0 5.509834,5.454984 5.4822033,5.4822033 0 0 0 5.454984,-5.509835 5.4822033,5.4822033 0 0 0 -5.509835,-5.454984 z"
       id="path3674-3"
       inkscape:connector-curvature="0" /><path
       style="fill:#a1c2fa;fill-opacity:1;fill-rule:evenodd;stroke:none;stroke-width:1.03503978px;stroke-linecap:butt;stroke-linejoin:miter;stroke-opacity:1"
       d="m 67.743421,51.258039 a 5.4822024,5.4822024 0 0 0 -5.454982,5.509832 5.4822024,5.4822024 0 0 0 5.509833,5.454983 5.4822024,5.4822024 0 0 0 5.454985,-5.509833 5.4822024,5.4822024 0 0 0 -5.509836,-5.454982 z"
       id="path3674-3-6"
       inkscape:connector-curvature="0" /><path
       style="fill:#a1c2fa;fill-opacity:1;fill-rule:evenodd;stroke:none;stroke-width:1.29379928px;stroke-linecap:butt;stroke-linejoin:miter;stroke-opacity:1"
       d="M 9.8315668,65.535429 A 6.8527526,6.8527526 0 0 0 3.0128375,72.422731 6.8527526,6.8527526 0 0 0 9.9001257,79.241466 6.8527526,6.8527526 0 0 0 16.71886,72.354164 6.8527526,6.8527526 0 0 0 9.8315668,65.535429 Z"
       id="path3674-3-6-7"
       inkscape:connector-curvature="0" /></g><circle
     style="fill:none;fill-opacity:1;stroke:#4285f4;stroke-width:4.94382095;stroke-miterlimit:4;stroke-dasharray:none;stroke-opacity:1"
     id="path4552"
     cx="49.43821"
     cy="49.43821"
     r="46.966301"
     inkscape:export-xdpi="497.10538"
     inkscape:export-ydpi="497.10538" /></svg>