<?xml version="1.0" encoding="UTF-8" standalone="no"?>
<!-- Generator: Adobe Illustrator 19.0.0, SVG Export Plug-In . SVG Version: 6.00 Build 0)  -->

<svg
   xmlns:dc="http://purl.org/dc/elements/1.1/"
   xmlns:cc="http://creativecommons.org/ns#"
   xmlns:rdf="http://www.w3.org/1999/02/22-rdf-syntax-ns#"
   xmlns:svg="http://www.w3.org/2000/svg"
   xmlns="http://www.w3.org/2000/svg"
   xmlns:sodipodi="http://sodipodi.sourceforge.net/DTD/sodipodi-0.dtd"
   xmlns:inkscape="http://www.inkscape.org/namespaces/inkscape"
   version="1.1"
   id="Capa_1"
   x="0px"
   y="0px"
   viewBox="0 0 26.018583 32.927345"
   xml:space="preserve"
   width="222.02524"
   height="280.98001"
   sodipodi:docname="play.svg"
   inkscape:version="0.92pre2 r"><metadata
     id="metadata43"><rdf:RDF><cc:Work
         rdf:about=""><dc:format>image/svg+xml</dc:format><dc:type
           rdf:resource="http://purl.org/dc/dcmitype/StillImage" /></cc:Work></rdf:RDF></metadata><defs
     id="defs41" /><sodipodi:namedview
     pagecolor="#ffffff"
     bordercolor="#666666"
     borderopacity="1"
     objecttolerance="10"
     gridtolerance="10"
     guidetolerance="10"
     inkscape:pageopacity="0"
     inkscape:pageshadow="2"
     inkscape:window-width="1600"
     inkscape:window-height="873"
     id="namedview39"
     showgrid="false"
     inkscape:zoom="0.921875"
     inkscape:cx="-85.290473"
     inkscape:cy="72.575458"
     inkscape:window-x="0"
     inkscape:window-y="27"
     inkscape:window-maximized="1"
     inkscape:current-layer="g6" /><g
     id="g6"
     style="fill:#ff0000"
     transform="translate(-20.851025,-13.52824)"><path
       d="m 45.563,29.174 -22,-15 C 23.256,13.966 22.86,13.943 22.532,14.116 22.205,14.289 22,14.629 22,15 v 30 c 0,0.371 0.205,0.711 0.533,0.884 C 22.679,45.962 22.84,46 23,46 c 0.197,0 0.394,-0.059 0.563,-0.174 l 22,-15 C 45.836,30.64 46,30.331 46,30 46,29.669 45.836,29.36 45.563,29.174 Z M 24,43.107 V 16.893 L 43.225,30 Z"
       id="path2"
       inkscape:connector-curvature="0"
       style="fill:#ffffff" /></g><g
     id="g8"
     transform="translate(-20.851025,-13.52824)" /><g
     id="g10"
     transform="translate(-20.851025,-13.52824)" /><g
     id="g12"
     transform="translate(-20.851025,-13.52824)" /><g
     id="g14"
     transform="translate(-20.851025,-13.52824)" /><g
     id="g16"
     transform="translate(-20.851025,-13.52824)" /><g
     id="g18"
     transform="translate(-20.851025,-13.52824)" /><g
     id="g20"
     transform="translate(-20.851025,-13.52824)" /><g
     id="g22"
     transform="translate(-20.851025,-13.52824)" /><g
     id="g24"
     transform="translate(-20.851025,-13.52824)" /><g
     id="g26"
     transform="translate(-20.851025,-13.52824)" /><g
     id="g28"
     transform="translate(-20.851025,-13.52824)" /><g
     id="g30"
     transform="translate(-20.851025,-13.52824)" /><g
     id="g32"
     transform="translate(-20.851025,-13.52824)" /><g
     id="g34"
     transform="translate(-20.851025,-13.52824)" /><g
     id="g36"
     transform="translate(-20.851025,-13.52824)" /></svg>