<?xml version="1.0" encoding="UTF-8" standalone="no"?>
<svg
   xmlns:dc="http://purl.org/dc/elements/1.1/"
   xmlns:cc="http://creativecommons.org/ns#"
   xmlns:rdf="http://www.w3.org/1999/02/22-rdf-syntax-ns#"
   xmlns:svg="http://www.w3.org/2000/svg"
   xmlns="http://www.w3.org/2000/svg"
   xmlns:sodipodi="http://sodipodi.sourceforge.net/DTD/sodipodi-0.dtd"
   xmlns:inkscape="http://www.inkscape.org/namespaces/inkscape"
   version="1.0"
   x="0px"
   y="0px"
   viewBox="0 0 92 92"
   enable-background="new 0 0 100 100"
   xml:space="preserve"
   id="svg32"
   sodipodi:docname="noun_705516_cc.svg"
   width="92"
   height="92"
   inkscape:version="0.92pre2 r"><metadata
     id="metadata38"><rdf:RDF><cc:Work
         rdf:about=""><dc:format>image/svg+xml</dc:format><dc:type
           rdf:resource="http://purl.org/dc/dcmitype/StillImage" /></cc:Work></rdf:RDF></metadata><defs
     id="defs36" /><sodipodi:namedview
     pagecolor="#ffffff"
     bordercolor="#666666"
     borderopacity="1"
     objecttolerance="10"
     gridtolerance="10"
     guidetolerance="10"
     inkscape:pageopacity="0"
     inkscape:pageshadow="2"
     inkscape:window-width="1600"
     inkscape:window-height="873"
     id="namedview34"
     showgrid="false"
     inkscape:zoom="5.3400704"
     inkscape:cx="21.939311"
     inkscape:cy="36.315838"
     inkscape:window-x="0"
     inkscape:window-y="27"
     inkscape:window-maximized="1"
     inkscape:current-layer="svg32" /><path
     stroke-miterlimit="10"
     d="m 72.547204,22.420559 v 6.388 c 0,1.38 -2.985,2.498 -6.663,2.498 -3.683,0 -6.67,-1.118 -6.67,-2.498 v -8.332 c 0,-1.12 1.979,-2.059 4.691,-2.377 l -11.36,-5.681 v 6.39 c 0,1.381 -2.986,2.5 -6.664,2.5 -3.683,0 -6.669,-1.119 -6.669,-2.5 v -6.39 l -11.358,5.679 c 2.71,0.318 4.691,1.258 4.691,2.378 v 8.332 c 0,1.38 -2.986,2.498 -6.663,2.498 -3.684,0 -6.67,-1.118 -6.67,-2.498 v -6.388 l -13.3319998,6.667 39.9989998,20.003 40.001,-20.003 z m -20.002,16.387 c 0,1.381 -2.986,2.5 -6.664,2.5 -3.683,0 -6.669,-1.119 -6.669,-2.5 v -8.331 c 0,-1.379 2.986,-2.502 6.669,-2.502 3.677,0 6.664,1.123 6.664,2.502 z"
     id="path2"
     inkscape:connector-curvature="0"
     style="fill:none;stroke:#4285f4;stroke-width:2;stroke-linecap:round;stroke-linejoin:round;stroke-miterlimit:10;stroke-opacity:1" /><path
     stroke-miterlimit="10"
     d="m 32.545204,20.474559 c 0,1.383 -2.982,2.504 -6.667,2.504 -3.68,0 -6.666,-1.121 -6.666,-2.504 0,-1.379 2.986,-2.5 6.666,-2.5 3.685,0 6.667,1.121 6.667,2.5 z"
     id="path4"
     inkscape:connector-curvature="0"
     style="fill:none;stroke:#4285f4;stroke-width:2;stroke-linecap:round;stroke-linejoin:round;stroke-miterlimit:10;stroke-opacity:1" /><path
     stroke-miterlimit="10"
     d="m 19.213204,20.476559 c 0,1.381 2.986,2.502 6.666,2.502 3.684,0 6.667,-1.121 6.667,-2.502 v 8.333 c 0,1.379 -2.982,2.498 -6.667,2.498 -3.68,0 -6.666,-1.119 -6.666,-2.498 z"
     id="path6"
     inkscape:connector-curvature="0"
     style="fill:none;stroke:#4285f4;stroke-width:2;stroke-linecap:round;stroke-linejoin:round;stroke-miterlimit:10;stroke-opacity:1" /><path
     stroke-miterlimit="10"
     d="m 72.547204,20.474559 c 0,1.383 -2.985,2.504 -6.663,2.504 -3.683,0 -6.67,-1.121 -6.67,-2.504 0,-1.379 2.987,-2.5 6.67,-2.5 3.678,0 6.663,1.121 6.663,2.5 z"
     id="path8"
     inkscape:connector-curvature="0"
     style="fill:none;stroke:#4285f4;stroke-width:2;stroke-linecap:round;stroke-linejoin:round;stroke-miterlimit:10;stroke-opacity:1" /><path
     stroke-miterlimit="10"
     d="m 59.214204,20.476559 c 0,1.381 2.987,2.502 6.67,2.502 3.678,0 6.663,-1.121 6.663,-2.502 v 8.333 c 0,1.379 -2.985,2.498 -6.663,2.498 -3.683,0 -6.67,-1.119 -6.67,-2.498 z"
     id="path10"
     inkscape:connector-curvature="0"
     style="fill:none;stroke:#4285f4;stroke-width:2;stroke-linecap:round;stroke-linejoin:round;stroke-miterlimit:10;stroke-opacity:1" /><path
     stroke-miterlimit="10"
     d="m 52.545204,30.477559 c 0,1.379 -2.983,2.5 -6.664,2.5 -3.683,0 -6.669,-1.121 -6.669,-2.5 0,-1.384 2.986,-2.5 6.669,-2.5 3.681,0 6.664,1.116 6.664,2.5 z"
     id="path12"
     inkscape:connector-curvature="0"
     style="fill:none;stroke:#4285f4;stroke-width:2;stroke-linecap:round;stroke-linejoin:round;stroke-miterlimit:10;stroke-opacity:1" /><path
     stroke-miterlimit="10"
     d="m 39.213204,30.477559 c 0,1.379 2.986,2.5 6.669,2.5 3.68,0 6.664,-1.121 6.664,-2.5 v 8.33 c 0,1.383 -2.983,2.503 -6.664,2.503 -3.683,0 -6.669,-1.12 -6.669,-2.503 z"
     id="path14"
     inkscape:connector-curvature="0"
     style="fill:none;stroke:#4285f4;stroke-width:2;stroke-linecap:round;stroke-linejoin:round;stroke-miterlimit:10;stroke-opacity:1" /><path
     stroke-miterlimit="10"
     d="m 52.545204,10.476559 c 0,1.38 -2.983,2.502 -6.664,2.502 -3.683,0 -6.669,-1.122 -6.669,-2.502 0,-1.3810003 2.986,-2.5010002 6.669,-2.5010002 3.681,0 6.664,1.1199999 6.664,2.5010002 z"
     id="path16"
     inkscape:connector-curvature="0"
     style="fill:none;stroke:#4285f4;stroke-width:2;stroke-linecap:round;stroke-linejoin:round;stroke-miterlimit:10;stroke-opacity:1" /><path
     stroke-miterlimit="10"
     d="m 39.213204,10.478559 c 0,1.378 2.986,2.5 6.669,2.5 3.68,0 6.664,-1.122 6.664,-2.5 v 8.332 c 0,1.379 -2.983,2.5 -6.664,2.5 -3.683,0 -6.669,-1.12 -6.669,-2.5 z"
     id="path18"
     inkscape:connector-curvature="0"
     style="fill:none;stroke:#4285f4;stroke-width:2;stroke-linecap:round;stroke-linejoin:round;stroke-miterlimit:10;stroke-opacity:1" /><polygon
     stroke-miterlimit="10"
     points="49.999,51.114 10.002,31.113 10.002,50.556 49.999,70.557 "
     id="polygon20"
     style="fill:none;stroke:#4285f4;stroke-width:2;stroke-linecap:round;stroke-linejoin:round;stroke-miterlimit:10;stroke-opacity:1"
     transform="translate(-4.1197958,-2.0244412)" /><polygon
     stroke-miterlimit="10"
     points="49.999,70.557 10.002,50.558 10.002,70.001 49.999,90 "
     id="polygon22"
     style="fill:none;stroke:#4285f4;stroke-width:2;stroke-linecap:round;stroke-linejoin:round;stroke-miterlimit:10;stroke-opacity:1"
     transform="translate(-4.1197958,-2.0244412)" /><polygon
     stroke-miterlimit="10"
     points="49.999,51.114 89.996,31.113 89.996,50.556 49.999,70.557 "
     id="polygon24"
     style="fill:none;stroke:#4285f4;stroke-width:2;stroke-linecap:round;stroke-linejoin:round;stroke-miterlimit:10;stroke-opacity:1"
     transform="translate(-4.1197958,-2.0244412)" /><polygon
     stroke-miterlimit="10"
     points="49.999,70.557 89.996,50.558 89.996,70.001 49.999,90 "
     id="polygon26"
     style="fill:none;stroke:#4285f4;stroke-width:2;stroke-linecap:round;stroke-linejoin:round;stroke-miterlimit:10;stroke-opacity:1"
     transform="translate(-4.1197958,-2.0244412)" /></svg>