<?xml version="1.0" encoding="UTF-8" standalone="no"?>
<svg
   xmlns:dc="http://purl.org/dc/elements/1.1/"
   xmlns:cc="http://creativecommons.org/ns#"
   xmlns:rdf="http://www.w3.org/1999/02/22-rdf-syntax-ns#"
   xmlns:svg="http://www.w3.org/2000/svg"
   xmlns="http://www.w3.org/2000/svg"
   xmlns:sodipodi="http://sodipodi.sourceforge.net/DTD/sodipodi-0.dtd"
   xmlns:inkscape="http://www.inkscape.org/namespaces/inkscape"
   data-name="Layer 1"
   viewBox="0 0 100 100"
   x="0px"
   y="0px"
   version="1.1"
   id="svg14"
   sodipodi:docname="noun_1119507_cc.svg"
   width="100"
   height="100"
   inkscape:version="0.92pre2 r">
  <metadata
     id="metadata20">
    <rdf:RDF>
      <cc:Work
         rdf:about="">
        <dc:format>image/svg+xml</dc:format>
        <dc:type
           rdf:resource="http://purl.org/dc/dcmitype/StillImage" />
      </cc:Work>
    </rdf:RDF>
  </metadata>
  <defs
     id="defs18" />
  <sodipodi:namedview
     pagecolor="#ffffff"
     bordercolor="#666666"
     borderopacity="1"
     objecttolerance="10"
     gridtolerance="10"
     guidetolerance="10"
     inkscape:pageopacity="0"
     inkscape:pageshadow="2"
     inkscape:window-width="1600"
     inkscape:window-height="873"
     id="namedview16"
     showgrid="false"
     inkscape:zoom="3.776"
     inkscape:cx="17.636412"
     inkscape:cy="41.352541"
     inkscape:window-x="0"
     inkscape:window-y="27"
     inkscape:window-maximized="1"
     inkscape:current-layer="svg14" />
  <title
     id="title2">Resume</title>
  <path
     d="M 69.28,5.1099986 H 13.84 V 95.109999 h 72.32 v -73.12 z m -0.28,3.68 13.48,13.4900004 H 69 Z M 16.66,92.299999 V 7.9199986 H 66.17 V 25.109999 h 17.17 v 67.2 z"
     id="path4"
     style="fill:#4285f4;fill-opacity:1;fill-rule:nonzero"
     inkscape:connector-curvature="0" />
  <path
     d="m 54.47,45.109999 a 6.0564201,6.0564201 0 0 0 8.53,8.6 v 0 a 6.0564201,6.0564201 0 0 0 -8.53,-8.6 z m 6.53,6.61 a 3.24,3.24 0 1 1 0,-4.61 3.24,3.24 0 0 1 0,4.61 z"
     id="path6"
     style="fill:#4285f4;fill-opacity:1"
     inkscape:connector-curvature="0" />
  <path
     d="m 73.94,31.719999 c -7.4,-0.84 -14.08,0.32 -19.73,3.43 a 32.88,32.88 0 0 0 -8.54,6.79 H 33.05 a 3,3 0 0 0 -2.13,0.87 l -8.51,8.3 a 3,3 0 0 0 0,4.33 l 3.72,3.72 a 3.12,3.12 0 0 0 4.08,0.2 8.93,8.93 0 0 1 5.44,-2.08 c -0.9,1.79 -1.7,3.46 -2.34,4.82 l -0.42,0.89 12.3,12.3 0.89,-0.42 c 1.4,-0.66 3.14,-1.48 5,-2.42 a 9.46,9.46 0 0 1 -2.25,5.69 3,3 0 0 0 0.2,4.08 l 3.54,3.54 a 3,3 0 0 0 4.31,0 l 8.51,-8.51 a 3,3 0 0 0 0.85,-2.14 v -12.6 a 32.86,32.86 0 0 0 6.76,-8.54 c 3.11,-5.68 4.27,-12.32 3.43,-19.74 a 2.83,2.83 0 0 0 -2.49,-2.51 z m -3.39,20.9 a 30.47,30.47 0 0 1 -6.66,8.21 l -0.47,0.42 v 13.86 a 0.24,0.24 0 0 1 -0.07,0.17 l -8.5,8.5 a 0.24,0.24 0 0 1 -0.33,0 l -3.52,-3.52 a 0.23,0.23 0 0 1 0,-0.31 13.06,13.06 0 0 0 2.84,-9.84 l -0.15,-2.16 -1.91,1 c -2.16,1.14 -4.28,2.17 -6,3 l -9.51,-9.51 c 0.8,-1.7 1.8,-3.76 2.91,-5.85 l 1,-1.92 -2.18,-0.16 c -0.52,0 -1,0 -1.47,0 a 12.16,12.16 0 0 0 -8.13,2.75 0.21,0.21 0 0 1 -0.31,0 l -3.72,-3.72 a 0.23,0.23 0 0 1 0,-0.33 l 8.51,-8.32 a 0.23,0.23 0 0 1 0.16,-0.07 h 13.88 l 0.42,-0.47 a 30.49,30.49 0 0 1 8.22,-6.67 c 5.15,-2.82 11.26,-3.87 18.07,-3.1 0.8,6.8 -0.24,12.88 -3.07,18.05 z"
     id="path8"
     style="fill:#4285f4;fill-opacity:1"
     inkscape:connector-curvature="0" />
</svg>
