<?xml version="1.0" encoding="UTF-8" standalone="no"?>
<svg
   xmlns:dc="http://purl.org/dc/elements/1.1/"
   xmlns:cc="http://creativecommons.org/ns#"
   xmlns:rdf="http://www.w3.org/1999/02/22-rdf-syntax-ns#"
   xmlns:svg="http://www.w3.org/2000/svg"
   xmlns="http://www.w3.org/2000/svg"
   xmlns:sodipodi="http://sodipodi.sourceforge.net/DTD/sodipodi-0.dtd"
   xmlns:inkscape="http://www.inkscape.org/namespaces/inkscape"
   version="1.1"
   x="0px"
   y="0px"
   viewBox="0 0 100 100"
   enable-background="new 0 0 100 100"
   xml:space="preserve"
   id="svg4"
   sodipodi:docname="x.svg"
   inkscape:version="0.92pre2 r"><metadata
     id="metadata10"><rdf:RDF><cc:Work
         rdf:about=""><dc:format>image/svg+xml</dc:format><dc:type
           rdf:resource="http://purl.org/dc/dcmitype/StillImage" /></cc:Work></rdf:RDF></metadata><defs
     id="defs8" /><sodipodi:namedview
     pagecolor="#ffffff"
     bordercolor="#666666"
     borderopacity="1"
     objecttolerance="10"
     gridtolerance="10"
     guidetolerance="10"
     inkscape:pageopacity="0"
     inkscape:pageshadow="2"
     inkscape:window-width="874"
     inkscape:window-height="480"
     id="namedview6"
     showgrid="false"
     inkscape:zoom="2.36"
     inkscape:cx="5.5084746"
     inkscape:cy="50"
     inkscape:window-x="0"
     inkscape:window-y="27"
     inkscape:window-maximized="0"
     inkscape:current-layer="svg4" /><path
     d="M56.15,49.999l39.063-39.063c1.697-1.699,1.697-4.451,0-6.15c-1.699-1.696-4.451-1.696-6.15,0L50,43.849L10.937,4.785  c-1.699-1.696-4.451-1.696-6.15,0c-1.697,1.699-1.697,4.451,0,6.15L43.85,49.999L4.787,89.062c-1.697,1.699-1.697,4.451,0,6.15  c0.849,0.848,1.963,1.275,3.075,1.275s2.226-0.427,3.075-1.275L50,56.149l39.063,39.063c0.849,0.848,1.963,1.275,3.075,1.275  c1.112,0,2.226-0.427,3.075-1.275c1.697-1.699,1.697-4.451,0-6.15L56.15,49.999z"
     id="path2"
     style="fill:#ffffff" /></svg>