<?xml version="1.0" encoding="UTF-8" standalone="no"?>
<svg
   xmlns:dc="http://purl.org/dc/elements/1.1/"
   xmlns:cc="http://creativecommons.org/ns#"
   xmlns:rdf="http://www.w3.org/1999/02/22-rdf-syntax-ns#"
   xmlns:svg="http://www.w3.org/2000/svg"
   xmlns="http://www.w3.org/2000/svg"
   xmlns:sodipodi="http://sodipodi.sourceforge.net/DTD/sodipodi-0.dtd"
   xmlns:inkscape="http://www.inkscape.org/namespaces/inkscape"
   version="1.1"
   x="0px"
   y="0px"
   viewBox="0 0 100 100"
   xml:space="preserve"
   id="svg10"
   sodipodi:docname="noun_874716_cc.svg"
   width="100"
   height="100"
   inkscape:version="0.92pre2 r"><metadata
     id="metadata16"><rdf:RDF><cc:Work
         rdf:about=""><dc:format>image/svg+xml</dc:format><dc:type
           rdf:resource="http://purl.org/dc/dcmitype/StillImage" /></cc:Work></rdf:RDF></metadata><defs
     id="defs14" /><sodipodi:namedview
     pagecolor="#ffffff"
     bordercolor="#666666"
     borderopacity="1"
     objecttolerance="10"
     gridtolerance="10"
     guidetolerance="10"
     inkscape:pageopacity="0"
     inkscape:pageshadow="2"
     inkscape:window-width="1600"
     inkscape:window-height="873"
     id="namedview12"
     showgrid="false"
     inkscape:zoom="1.888"
     inkscape:cx="-66.118684"
     inkscape:cy="59.459248"
     inkscape:window-x="0"
     inkscape:window-y="27"
     inkscape:window-maximized="1"
     inkscape:current-layer="svg10" /><g
     id="g4"
     transform="matrix(0.98000002,0,0,0.98000002,0.51151905,1.1342252)"><path
       d="M 92.696161,29.776724 C 91.053456,28.134921 85.28851,24.893105 80.408527,29.77336 L 62.540385,47.641177 52.132601,37.233393 70.000742,19.366154 C 74.930695,14.436229 71.638907,8.71944 69.996742,7.0785409 68.354113,5.4367689 62.590072,2.194954 57.710087,7.0747409 L 39.841325,24.942171 34.622438,19.722376 18.689569,35.656153 15.565874,62.476548 5.2389492,72.802552 27.788092,95.351695 38.115007,85.024772 64.9354,81.901075 80.86736,65.968206 74.832567,59.932507 92.699795,42.065272 c 3.387197,-3.386273 3.385374,-8.898637 -0.0045,-12.288548 z M 60.104475,9.469957 c 2.870209,-2.8702051 6.493622,-0.998532 7.4967,0.0054 1.003078,1.001257 3.067373,4.432051 0.0045,7.495786 l -17.86899,17.866386 -7.499428,-7.499434 z m 15.97194,56.498249 -12.704692,12.70377 -26.819466,3.123697 -8.764165,8.76417 -17.75729,-17.757291 8.764169,-8.764165 3.123697,-26.819466 12.70377,-12.703785 z M 90.304784,39.670258 72.436643,57.53749 64.93631,50.037156 82.804453,32.169938 c 2.867465,-2.86749 6.494526,-0.999448 7.4967,0.0034 2.067925,2.067925 2.068832,5.430582 0.0045,7.4976 z"
       id="path2"
       inkscape:connector-curvature="0"
       style="fill:#4285f4;fill-opacity:1;stroke:none;stroke-width:0.90858048;stroke-opacity:1" /></g></svg>