<?xml version="1.0" encoding="UTF-8" standalone="no"?>
<svg
   xmlns:dc="http://purl.org/dc/elements/1.1/"
   xmlns:cc="http://creativecommons.org/ns#"
   xmlns:rdf="http://www.w3.org/1999/02/22-rdf-syntax-ns#"
   xmlns:svg="http://www.w3.org/2000/svg"
   xmlns="http://www.w3.org/2000/svg"
   xmlns:sodipodi="http://sodipodi.sourceforge.net/DTD/sodipodi-0.dtd"
   xmlns:inkscape="http://www.inkscape.org/namespaces/inkscape"
   version="1.1"
   x="0px"
   y="0px"
   viewBox="0 0 100 100"
   xml:space="preserve"
   id="svg8"
   sodipodi:docname="queue.svg"
   width="100"
   height="100"
   inkscape:version="0.92pre2 r"><metadata
     id="metadata14"><rdf:RDF><cc:Work
         rdf:about=""><dc:format>image/svg+xml</dc:format><dc:type
           rdf:resource="http://purl.org/dc/dcmitype/StillImage" /></cc:Work></rdf:RDF></metadata><defs
     id="defs12" /><sodipodi:namedview
     pagecolor="#ffffff"
     bordercolor="#666666"
     borderopacity="1"
     objecttolerance="10"
     gridtolerance="10"
     guidetolerance="10"
     inkscape:pageopacity="0"
     inkscape:pageshadow="2"
     inkscape:window-width="1600"
     inkscape:window-height="873"
     id="namedview10"
     showgrid="false"
     inkscape:zoom="1.888"
     inkscape:cx="-11.90678"
     inkscape:cy="19.659322"
     inkscape:window-x="0"
     inkscape:window-y="27"
     inkscape:window-maximized="1"
     inkscape:current-layer="svg8" /><path
     d="m 25.3,30.299999 -20.3,15.7 0.2,-31.6 z m 8.9,1.3 h 59.4 c 0.8,0 1.4,-0.6 1.4,-1.4 0,-0.8 -0.6,-1.4 -1.4,-1.4 H 34.2 c -0.8,0 -1.4,0.6 -1.4,1.4 -0.1,0.8 0.6,1.4 1.4,1.4 z m 59.4,21.5 h -87 c -0.8,0 -1.4,0.6 -1.4,1.4 0,0.8 0.6,1.4 1.4,1.4 h 86.9 c 0.8,0 1.4,-0.6 1.4,-1.4 0.1,-0.7 -0.5,-1.4 -1.3,-1.4 z m 0,24.4 h -87 c -0.8,0 -1.4,0.6 -1.4,1.4 0,0.8 0.6,1.5 1.4,1.5 h 86.9 c 0.8,0 1.4,-0.6 1.4,-1.4 0,-0.8 -0.5,-1.5 -1.3,-1.5 z"
     id="path2"
     inkscape:connector-curvature="0"
     style="fill:#4285f4;fill-opacity:1" /><rect
     style="fill:none;fill-opacity:0.98039216;stroke:none;stroke-width:1.91535127;stroke-linecap:square;stroke-miterlimit:4;stroke-dasharray:none;stroke-opacity:1"
     id="rect4474"
     width="98.084648"
     height="98.084648"
     x="0.95767564"
     y="0.95767564" /></svg>