<?xml version="1.0" encoding="UTF-8" standalone="no"?>
<svg
   xmlns:dc="http://purl.org/dc/elements/1.1/"
   xmlns:cc="http://creativecommons.org/ns#"
   xmlns:rdf="http://www.w3.org/1999/02/22-rdf-syntax-ns#"
   xmlns:svg="http://www.w3.org/2000/svg"
   xmlns="http://www.w3.org/2000/svg"
   xmlns:sodipodi="http://sodipodi.sourceforge.net/DTD/sodipodi-0.dtd"
   xmlns:inkscape="http://www.inkscape.org/namespaces/inkscape"
   version="1.1"
   x="0px"
   y="0px"
   viewBox="0 0 99.999992 100"
   xml:space="preserve"
   id="svg12"
   sodipodi:docname="settings.svg"
   width="99.999992"
   height="100"
   inkscape:version="0.92pre2 r"><metadata
     id="metadata18"><rdf:RDF><cc:Work
         rdf:about=""><dc:format>image/svg+xml</dc:format><dc:type
           rdf:resource="http://purl.org/dc/dcmitype/StillImage" /></cc:Work></rdf:RDF></metadata><defs
     id="defs16" /><sodipodi:namedview
     pagecolor="#ffffff"
     bordercolor="#666666"
     borderopacity="1"
     objecttolerance="10"
     gridtolerance="10"
     guidetolerance="10"
     inkscape:pageopacity="0"
     inkscape:pageshadow="2"
     inkscape:window-width="1600"
     inkscape:window-height="873"
     id="namedview14"
     showgrid="false"
     inkscape:zoom="5.3400704"
     inkscape:cx="32.363907"
     inkscape:cy="44.102214"
     inkscape:window-x="0"
     inkscape:window-y="27"
     inkscape:window-maximized="1"
     inkscape:current-layer="svg12" /><g
     id="g6"
     style="fill:#4285f4;fill-opacity:1;stroke:#4285f4;stroke-opacity:1"
     transform="matrix(1.0105882,0,0,1.0105882,-0.907226,-1.5449379)"><path
       d="m 50.3,68.9 c 10.4,0 18.9,-8.5 18.9,-18.9 0,-10.4 -8.5,-18.9 -18.9,-18.9 -10.4,0 -18.9,8.5 -18.9,18.9 0,10.4 8.5,18.9 18.9,18.9 z m 0,-35.8 c 9.3,0 16.9,7.6 16.9,16.9 0,9.3 -7.6,16.9 -16.9,16.9 C 41,66.9 33.4,59.3 33.4,50 33.4,40.7 41,33.1 50.3,33.1 Z"
       id="path2"
       inkscape:connector-curvature="0"
       style="fill:#4285f4;fill-opacity:1;stroke:#4285f4;stroke-opacity:1" /><path
       d="m 11.4,65.7 5.7,9.8 c 1.3,2.3 4.2,3.2 6.6,2.1 l 4.6,-2.1 c 3.1,2.6 6.6,4.7 10.5,6 l 0.5,5 c 0.2,2.7 2.4,4.7 5.1,4.7 h 11.3 c 2.7,0 4.9,-2 5.1,-4.7 l 0.5,-5 c 3.8,-1.4 7.3,-3.4 10.5,-6 l 4.6,2.1 c 2.4,1.1 5.3,0.2 6.6,-2.1 l 5.7,-9.8 C 90,63.4 89.4,60.5 87.2,58.9 L 83.1,56 c 0.4,-2 0.5,-4 0.5,-6 0,-2 -0.2,-4.1 -0.5,-6 l 4.1,-2.9 c 2.2,-1.5 2.8,-4.5 1.5,-6.8 L 83,24.5 c -1.3,-2.3 -4.2,-3.2 -6.6,-2.1 l -4.6,2.1 c -3.1,-2.6 -6.6,-4.7 -10.5,-6 l -0.5,-5 C 60.6,10.8 58.4,8.8 55.7,8.8 H 44.3 c -2.7,0 -4.9,2 -5.1,4.7 l -0.5,5 c -3.8,1.4 -7.3,3.4 -10.5,6 L 23.6,22.4 C 21.2,21.3 18.3,22.2 17,24.5 l -5.7,9.8 c -1.3,2.3 -0.7,5.2 1.5,6.8 L 17,44 c -0.4,2 -0.5,4 -0.5,6 0,2 0.2,4.1 0.5,6 l -4.1,2.9 c -2.2,1.6 -2.8,4.5 -1.5,6.8 z m 2.7,-5.1 5.2,-3.6 -0.1,-0.6 c -0.4,-2.1 -0.6,-4.2 -0.6,-6.3 0,-2.1 0.2,-4.2 0.6,-6.3 l 0.1,-0.6 -5.2,-3.6 c -1.3,-0.9 -1.7,-2.7 -0.9,-4.1 l 5.7,-9.8 c 0.8,-1.4 2.6,-2 4,-1.3 l 5.8,2.7 0.5,-0.4 c 3.2,-2.8 6.8,-4.9 10.9,-6.3 l 0.6,-0.2 0.6,-6.3 C 41.4,12.3 42.8,11 44.4,11 h 11.3 c 1.6,0 3,1.2 3.1,2.9 l 0.6,6.3 0.6,0.2 c 4,1.3 7.7,3.5 10.9,6.3 l 0.5,0.4 5.7,-2.7 c 1.5,-0.7 3.2,-0.1 4,1.3 l 5.7,9.8 c 0.8,1.4 0.4,3.2 -0.9,4.1 l -5.2,3.6 0.1,0.6 c 0.4,2.1 0.6,4.2 0.6,6.3 0,2.1 -0.2,4.2 -0.6,6.3 l -0.1,0.6 5.2,3.6 c 1.3,0.9 1.7,2.7 0.9,4.1 l -5.7,9.8 c -0.8,1.4 -2.6,2 -4,1.3 l -5.7,-2.7 -0.5,0.4 C 67.7,76.3 64,78.4 60,79.8 l -0.6,0.2 -0.6,6.3 c -0.1,1.6 -1.5,2.9 -3.1,2.9 H 44.3 c -1.6,0 -3,-1.2 -3.1,-2.9 L 40.6,80 40,79.9 C 36,78.6 32.3,76.4 29.1,73.6 l -0.5,-0.4 -5.8,2.7 c -1.5,0.7 -3.2,0.1 -4,-1.3 l -5.7,-9.8 c -0.8,-1.5 -0.4,-3.3 1,-4.2 z"
       id="path4"
       inkscape:connector-curvature="0"
       style="fill:#4285f4;fill-opacity:1;stroke:#4285f4;stroke-opacity:1" /></g></svg>