<?xml version="1.0" encoding="UTF-8" standalone="no"?>
<!-- Generator: Adobe Illustrator 19.0.0, SVG Export Plug-In . SVG Version: 6.00 Build 0)  -->

<svg
   xmlns:dc="http://purl.org/dc/elements/1.1/"
   xmlns:cc="http://creativecommons.org/ns#"
   xmlns:rdf="http://www.w3.org/1999/02/22-rdf-syntax-ns#"
   xmlns:svg="http://www.w3.org/2000/svg"
   xmlns="http://www.w3.org/2000/svg"
   xmlns:sodipodi="http://sodipodi.sourceforge.net/DTD/sodipodi-0.dtd"
   xmlns:inkscape="http://www.inkscape.org/namespaces/inkscape"
   version="1.1"
   id="Layer_1"
   x="0px"
   y="0px"
   viewBox="0 0 413.42961 492.61868"
   xml:space="preserve"
   sodipodi:docname="splash.svg"
   width="413.4296"
   height="492.61865"
   inkscape:version="0.92.2 (5c3e80d, 2017-08-06)"><metadata
     id="metadata61"><rdf:RDF><cc:Work
         rdf:about=""><dc:format>image/svg+xml</dc:format><dc:type
           rdf:resource="http://purl.org/dc/dcmitype/StillImage" /><dc:title /></cc:Work></rdf:RDF></metadata><defs
     id="defs59" /><sodipodi:namedview
     pagecolor="#ffffff"
     bordercolor="#666666"
     borderopacity="1"
     objecttolerance="10"
     gridtolerance="10"
     guidetolerance="10"
     inkscape:pageopacity="0"
     inkscape:pageshadow="2"
     inkscape:window-width="1600"
     inkscape:window-height="873"
     id="namedview57"
     showgrid="false"
     inkscape:zoom="0.9484006"
     inkscape:cx="-89.420279"
     inkscape:cy="182.12973"
     inkscape:window-x="0"
     inkscape:window-y="27"
     inkscape:window-maximized="1"
     inkscape:current-layer="Layer_1" /><rect
     style="fill:#ffffff;fill-opacity:0.98039216;fill-rule:nonzero;stroke:#4285f4;stroke-width:1;stroke-linecap:square;stroke-linejoin:round;stroke-miterlimit:4;stroke-dasharray:none;stroke-opacity:1"
     id="rect5238"
     width="412.4296"
     height="491.61865"
     x="0.5"
     y="0.5" /><text
     xml:space="preserve"
     style="font-style:normal;font-variant:normal;font-weight:500;font-stretch:normal;font-size:48px;line-height:25px;font-family:Roboto;-inkscape-font-specification:'Roboto Medium';letter-spacing:0px;word-spacing:0px;fill:#4285f4;fill-opacity:1;stroke:none;stroke-width:1.39999998;stroke-linecap:butt;stroke-linejoin:round;stroke-miterlimit:4;stroke-dasharray:none;stroke-opacity:1"
     x="162.13211"
     y="166.19981"
     id="text5109"><tspan
       sodipodi:role="line"
       id="tspan5107"
       x="162.13211"
       y="166.19981"
       style="font-style:normal;font-variant:normal;font-weight:900;font-stretch:normal;font-size:48px;font-family:Roboto;-inkscape-font-specification:'Roboto Heavy';fill:#4285f4;fill-opacity:1;stroke:none;stroke-width:1.39999998;stroke-linejoin:round;stroke-miterlimit:4;stroke-dasharray:none;stroke-opacity:1">Evoplex</tspan></text>
<g
     id="g24"
     transform="translate(-79.987332,37.986588)" /><g
     transform="matrix(0.82401848,0,0,0.82401848,70.492215,112.33681)"
     id="g5195"><path
       style="display:inline;fill:#a1c2fa;fill-opacity:1;stroke-width:0.88575321"
       sodipodi:nodetypes="cccccccccccccc"
       inkscape:connector-curvature="0"
       id="polygon2"
       d="m 66.481458,43.431204 -4.575987,-2.477142 -18.722933,0.13167 -0.0915,-20.05061 -2.094548,-4.541946 0.198373,39.655086 -21.688595,19.255664 3.19301,3.070311 19.207425,-19.261733 41.912322,-0.412083 -4.51947,-2.364463 -36.046634,0.269355 -0.05823,-13.119611 z" /><circle
       inkscape:export-ydpi="497.10538"
       inkscape:export-xdpi="497.10538"
       r="46.966301"
       cy="49.43821"
       cx="49.43821"
       id="path4552"
       style="display:inline;fill:none;fill-opacity:1;stroke:#4285f4;stroke-width:4.94382095;stroke-miterlimit:4;stroke-dasharray:none;stroke-opacity:1" /><g
       id="layer1"
       inkscape:label="Layer 1"
       transform="translate(15.745442,0.73679789)"
       style="display:inline"
       inkscape:groupmode="layer"><path
         style="fill:#a1c2fa;fill-opacity:1;fill-rule:evenodd;stroke:none;stroke-width:1.03504002px;stroke-linecap:butt;stroke-linejoin:miter;stroke-opacity:1"
         d="m 26.231422,10.019627 a 5.4822038,5.4822038 0 0 0 -5.454983,5.509834 5.4822038,5.4822038 0 0 0 5.509833,5.454984 5.4822038,5.4822038 0 0 0 5.454985,-5.509835 5.4822038,5.4822038 0 0 0 -5.509835,-5.454983 z"
         id="path3674"
         inkscape:connector-curvature="0" /><path
         style="fill:#4285f4;fill-opacity:1;fill-rule:evenodd;stroke:none;stroke-width:1.0350399px;stroke-linecap:butt;stroke-linejoin:miter;stroke-opacity:1"
         d="m 50.520422,35.904034 a 5.4822033,5.4822033 0 0 0 -5.454983,5.509835 5.4822033,5.4822033 0 0 0 5.509834,5.454984 5.4822033,5.4822033 0 0 0 5.454984,-5.509835 5.4822033,5.4822033 0 0 0 -5.509835,-5.454984 z"
         id="path3674-3"
         inkscape:connector-curvature="0" /><path
         style="fill:#a1c2fa;fill-opacity:1;fill-rule:evenodd;stroke:none;stroke-width:1.03503978px;stroke-linecap:butt;stroke-linejoin:miter;stroke-opacity:1"
         d="m 67.743421,51.258039 a 5.4822024,5.4822024 0 0 0 -5.454982,5.509832 5.4822024,5.4822024 0 0 0 5.509833,5.454983 5.4822024,5.4822024 0 0 0 5.454985,-5.509833 5.4822024,5.4822024 0 0 0 -5.509836,-5.454982 z"
         id="path3674-3-6"
         inkscape:connector-curvature="0" /><path
         style="fill:#a1c2fa;fill-opacity:1;fill-rule:evenodd;stroke:none;stroke-width:1.29379928px;stroke-linecap:butt;stroke-linejoin:miter;stroke-opacity:1"
         d="M 9.8315668,65.535429 A 6.8527526,6.8527526 0 0 0 3.0128375,72.422731 6.8527526,6.8527526 0 0 0 9.9001257,79.241466 6.8527526,6.8527526 0 0 0 16.71886,72.354164 6.8527526,6.8527526 0 0 0 9.8315668,65.535429 Z"
         id="path3674-3-6-7"
         inkscape:connector-curvature="0" /></g></g></svg>