<?xml version="1.0" encoding="UTF-8" standalone="no"?>
<!-- Generator: Adobe Illustrator 19.0.0, SVG Export Plug-In . SVG Version: 6.00 Build 0)  -->

<svg
   xmlns:dc="http://purl.org/dc/elements/1.1/"
   xmlns:cc="http://creativecommons.org/ns#"
   xmlns:rdf="http://www.w3.org/1999/02/22-rdf-syntax-ns#"
   xmlns:svg="http://www.w3.org/2000/svg"
   xmlns="http://www.w3.org/2000/svg"
   xmlns:sodipodi="http://sodipodi.sourceforge.net/DTD/sodipodi-0.dtd"
   xmlns:inkscape="http://www.inkscape.org/namespaces/inkscape"
   version="1.1"
   id="Layer_1"
   x="0px"
   y="0px"
   viewBox="0 0 413.42961 492.61868"
   xml:space="preserve"
   sodipodi:docname="splash.svg"
   width="413.4296"
   height="492.61865"
   inkscape:version="0.92.3 (2405546, 2018-03-11)"><metadata
   id="metadata61"><rdf:RDF><cc:Work
       rdf:about=""><dc:format>image/svg+xml</dc:format><dc:type
         rdf:resource="http://purl.org/dc/dcmitype/StillImage" /><dc:title /></cc:Work></rdf:RDF></metadata><defs
   id="defs59" /><sodipodi:namedview
   pagecolor="#ffffff"
   bordercolor="#666666"
   borderopacity="1"
   objecttolerance="10"
   gridtolerance="10"
   guidetolerance="10"
   inkscape:pageopacity="0"
   inkscape:pageshadow="2"
   inkscape:window-width="1600"
   inkscape:window-height="873"
   id="namedview57"
   showgrid="false"
   inkscape:zoom="0.9484006"
   inkscape:cx="-93.637906"
   inkscape:cy="177.9121"
   inkscape:window-x="0"
   inkscape:window-y="27"
   inkscape:window-maximized="1"
   inkscape:current-layer="Layer_1" /><rect
   style="fill:#ffffff;fill-opacity:0.98039216;fill-rule:nonzero;stroke:#4285f4;stroke-width:1;stroke-linecap:square;stroke-linejoin:round;stroke-miterlimit:4;stroke-dasharray:none;stroke-opacity:1"
   id="rect5238"
   width="412.4296"
   height="491.61865"
   x="0.5"
   y="0.5" /><g
   aria-label="Evoplex"
   style="font-style:normal;font-variant:normal;font-weight:500;font-stretch:normal;font-size:48px;line-height:25px;font-family:Roboto;-inkscape-font-specification:'Roboto Medium';letter-spacing:0px;word-spacing:0px;fill:#4285f4;fill-opacity:1;stroke:none;stroke-width:1.39999998;stroke-linecap:butt;stroke-linejoin:round;stroke-miterlimit:4;stroke-dasharray:none;stroke-opacity:1"
   id="text5109"><path
     d="m 185.8743,151.73888 h -12.9375 v 8.13281 h 15.28125 v 6.32812 h -23.50781 v -34.125 h 23.55468 v 6.35157 H 172.9368 v 7.19531 h 12.9375 z"
     style="font-style:normal;font-variant:normal;font-weight:900;font-stretch:normal;font-size:48px;font-family:Roboto;-inkscape-font-specification:'Roboto Heavy';fill:#4285f4;fill-opacity:1;stroke:none;stroke-width:1.39999998;stroke-linejoin:round;stroke-miterlimit:4;stroke-dasharray:none;stroke-opacity:1"
     id="path823"
     inkscape:connector-curvature="0" /><path
     d="m 200.80399,156.80138 4.00781,-15.96094 h 8.32031 l -8.27344,25.35937 h -8.0625 l -8.27343,-25.35937 h 8.34375 z"
     style="font-style:normal;font-variant:normal;font-weight:900;font-stretch:normal;font-size:48px;font-family:Roboto;-inkscape-font-specification:'Roboto Heavy';fill:#4285f4;fill-opacity:1;stroke:none;stroke-width:1.39999998;stroke-linejoin:round;stroke-miterlimit:4;stroke-dasharray:none;stroke-opacity:1"
     id="path825"
     inkscape:connector-curvature="0" /><path
     d="m 214.16336,153.28575 q 0,-3.79687 1.47656,-6.75 1.47657,-2.97656 4.24219,-4.57031 2.76563,-1.59375 6.49219,-1.59375 5.69531,0 8.97656,3.53906 3.28125,3.51563 3.28125,9.58594 v 0.28125 q 0,5.92969 -3.30469,9.42187 -3.28125,3.46875 -8.90625,3.46875 -5.41406,0 -8.69531,-3.23437 -3.28125,-3.25781 -3.53906,-8.8125 z m 7.89844,0.49219 q 0,3.51562 1.10156,5.15625 1.10156,1.64062 3.25781,1.64062 4.21875,0 4.3125,-6.49218 v -0.79688 q 0,-6.82031 -4.35937,-6.82031 -3.96094,0 -4.28906,5.88281 z"
     style="font-style:normal;font-variant:normal;font-weight:900;font-stretch:normal;font-size:48px;font-family:Roboto;-inkscape-font-specification:'Roboto Heavy';fill:#4285f4;fill-opacity:1;stroke:none;stroke-width:1.39999998;stroke-linejoin:round;stroke-miterlimit:4;stroke-dasharray:none;stroke-opacity:1"
     id="path827"
     inkscape:connector-curvature="0" /><path
     d="m 265.70242,153.70763 q 0,5.90625 -2.67187,9.44531 -2.64844,3.51562 -7.17188,3.51562 -3.49218,0 -5.74218,-2.55468 v 11.83593 h -7.89844 v -35.10937 h 7.38281 l 0.23438,2.34375 q 2.27343,-2.8125 5.97656,-2.8125 4.6875,0 7.28906,3.46875 2.60156,3.44531 2.60156,9.49219 z m -7.89843,-0.49219 q 0,-6.75 -3.9375,-6.75 -2.8125,0 -3.75,2.01562 v 9.98438 q 1.03125,2.10937 3.79687,2.10937 3.77344,0 3.89063,-6.51562 z"
     style="font-style:normal;font-variant:normal;font-weight:900;font-stretch:normal;font-size:48px;font-family:Roboto;-inkscape-font-specification:'Roboto Heavy';fill:#4285f4;fill-opacity:1;stroke:none;stroke-width:1.39999998;stroke-linejoin:round;stroke-miterlimit:4;stroke-dasharray:none;stroke-opacity:1"
     id="path829"
     inkscape:connector-curvature="0" /><path
     d="m 277.49149,166.19981 h -7.92188 v -36 h 7.92188 z"
     style="font-style:normal;font-variant:normal;font-weight:900;font-stretch:normal;font-size:48px;font-family:Roboto;-inkscape-font-specification:'Roboto Heavy';fill:#4285f4;fill-opacity:1;stroke:none;stroke-width:1.39999998;stroke-linejoin:round;stroke-miterlimit:4;stroke-dasharray:none;stroke-opacity:1"
     id="path831"
     inkscape:connector-curvature="0" /><path
     d="m 294.64774,166.66856 q -5.83594,0 -9.44532,-3.46875 -3.60937,-3.49218 -3.60937,-9.07031 v -0.65625 q 0,-3.89062 1.42969,-6.86719 1.45312,-2.97656 4.21875,-4.59375 2.76562,-1.64062 6.5625,-1.64062 5.34375,0 8.4375,3.32812 3.09375,3.30469 3.09375,9.23438 v 3.07031 h -15.70313 q 0.42188,2.13281 1.85156,3.35156 1.42969,1.21875 3.70313,1.21875 3.75,0 5.85937,-2.625 l 3.60938,4.26563 q -1.47656,2.03906 -4.19531,3.25781 -2.69532,1.19531 -5.8125,1.19531 z m -0.89063,-20.20312 q -3.46875,0 -4.125,4.59375 h 7.96875 v -0.60938 q 0.0469,-1.89843 -0.96094,-2.92968 -1.00781,-1.05469 -2.88281,-1.05469 z"
     style="font-style:normal;font-variant:normal;font-weight:900;font-stretch:normal;font-size:48px;font-family:Roboto;-inkscape-font-specification:'Roboto Heavy';fill:#4285f4;fill-opacity:1;stroke:none;stroke-width:1.39999998;stroke-linejoin:round;stroke-miterlimit:4;stroke-dasharray:none;stroke-opacity:1"
     id="path833"
     inkscape:connector-curvature="0" /><path
     d="m 318.8118,147.82481 3.67969,-6.98437 h 8.20312 l -6.67969,12.35156 7.00782,13.00781 h -8.25 l -3.98438,-7.5 -3.91406,7.5 h -8.29688 l 7.03125,-13.00781 -6.65625,-12.35156 h 8.29688 z"
     style="font-style:normal;font-variant:normal;font-weight:900;font-stretch:normal;font-size:48px;font-family:Roboto;-inkscape-font-specification:'Roboto Heavy';fill:#4285f4;fill-opacity:1;stroke:none;stroke-width:1.39999998;stroke-linejoin:round;stroke-miterlimit:4;stroke-dasharray:none;stroke-opacity:1"
     id="path835"
     inkscape:connector-curvature="0" /></g>
<g
   id="g24"
   transform="translate(-79.987332,37.986588)" /><g
   transform="matrix(0.82401848,0,0,0.82401848,70.492215,112.33681)"
   id="g5195"><path
     style="display:inline;fill:#a1c2fa;fill-opacity:1;stroke-width:0.88575321"
     sodipodi:nodetypes="cccccccccccccc"
     inkscape:connector-curvature="0"
     id="polygon2"
     d="m 66.481458,43.431204 -4.575987,-2.477142 -18.722933,0.13167 -0.0915,-20.05061 -2.094548,-4.541946 0.198373,39.655086 -21.688595,19.255664 3.19301,3.070311 19.207425,-19.261733 41.912322,-0.412083 -4.51947,-2.364463 -36.046634,0.269355 -0.05823,-13.119611 z" /><circle
     inkscape:export-ydpi="497.10538"
     inkscape:export-xdpi="497.10538"
     r="46.966301"
     cy="49.43821"
     cx="49.43821"
     id="path4552"
     style="display:inline;fill:none;fill-opacity:1;stroke:#4285f4;stroke-width:4.94382095;stroke-miterlimit:4;stroke-dasharray:none;stroke-opacity:1" /><g
     id="layer1"
     inkscape:label="Layer 1"
     transform="translate(15.745442,0.73679789)"
     style="display:inline"
     inkscape:groupmode="layer"><path
       style="fill:#a1c2fa;fill-opacity:1;fill-rule:evenodd;stroke:none;stroke-width:1.03504002px;stroke-linecap:butt;stroke-linejoin:miter;stroke-opacity:1"
       d="m 26.231422,10.019627 a 5.4822038,5.4822038 0 0 0 -5.454983,5.509834 5.4822038,5.4822038 0 0 0 5.509833,5.454984 5.4822038,5.4822038 0 0 0 5.454985,-5.509835 5.4822038,5.4822038 0 0 0 -5.509835,-5.454983 z"
       id="path3674"
       inkscape:connector-curvature="0" /><path
       style="fill:#4285f4;fill-opacity:1;fill-rule:evenodd;stroke:none;stroke-width:1.0350399px;stroke-linecap:butt;stroke-linejoin:miter;stroke-opacity:1"
       d="m 50.520422,35.904034 a 5.4822033,5.4822033 0 0 0 -5.454983,5.509835 5.4822033,5.4822033 0 0 0 5.509834,5.454984 5.4822033,5.4822033 0 0 0 5.454984,-5.509835 5.4822033,5.4822033 0 0 0 -5.509835,-5.454984 z"
       id="path3674-3"
       inkscape:connector-curvature="0" /><path
       style="fill:#a1c2fa;fill-opacity:1;fill-rule:evenodd;stroke:none;stroke-width:1.03503978px;stroke-linecap:butt;stroke-linejoin:miter;stroke-opacity:1"
       d="m 67.743421,51.258039 a 5.4822024,5.4822024 0 0 0 -5.454982,5.509832 5.4822024,5.4822024 0 0 0 5.509833,5.454983 5.4822024,5.4822024 0 0 0 5.454985,-5.509833 5.4822024,5.4822024 0 0 0 -5.509836,-5.454982 z"
       id="path3674-3-6"
       inkscape:connector-curvature="0" /><path
       style="fill:#a1c2fa;fill-opacity:1;fill-rule:evenodd;stroke:none;stroke-width:1.29379928px;stroke-linecap:butt;stroke-linejoin:miter;stroke-opacity:1"
       d="M 9.8315668,65.535429 A 6.8527526,6.8527526 0 0 0 3.0128375,72.422731 6.8527526,6.8527526 0 0 0 9.9001257,79.241466 6.8527526,6.8527526 0 0 0 16.71886,72.354164 6.8527526,6.8527526 0 0 0 9.8315668,65.535429 Z"
       id="path3674-3-6-7"
       inkscape:connector-curvature="0" /></g></g></svg>